<svg width="56" height="52" viewBox="0 0 56 52" fill="none" xmlns="http://www.w3.org/2000/svg">
<path d="M51.3335 16.668L50.6853 16.668L42.67 2.67099C42.0501 1.58872 41.0498 0.814019 39.849 0.492675C39.4021 0.373894 38.9483 0.32041 38.4992 0.335504C37.746 0.360769 37.0062 0.574269 36.3353 0.963207L2.31289 20.7695C0.825611 21.636 -0.00728013 23.215 4.80024e-05 24.8343C0.00365738 25.6164 0.205017 26.4091 0.619876 27.1334L7.00005 38.2761L7.00005 47C7.00005 49.5736 9.09414 51.6665 11.6668 51.6665L51.3335 51.6665C53.9061 51.6665 56.0002 49.5737 56.0002 47L56.0002 21.3345C56.0001 18.7609 53.9061 16.668 51.3335 16.668ZM7.00005 21.3331L7.00005 33.5816L2.64331 25.9723C2.00533 24.8569 2.38355 23.4271 3.48867 22.7845L7.06371 20.7032C7.03527 20.9112 7.00005 21.1174 7.00005 21.3331ZM37.5112 2.97975C38.0398 2.66989 38.655 2.58666 39.2452 2.74624C39.84 2.90571 40.3367 3.29082 40.6466 3.8308L47.9977 16.668L13.9979 16.668L37.5112 2.97975ZM53.6668 46.9997C53.6668 48.2859 52.6208 49.333 51.3335 49.333L11.6668 49.333C10.3793 49.333 9.33346 48.2859 9.33346 46.9997L9.33346 21.3331C9.33346 20.0469 10.3794 18.9998 11.6668 18.9998L51.3335 18.9998C52.6209 18.9998 53.6668 20.0469 53.6668 21.3331L53.6668 46.9997Z" fill="white"/>
<path d="M50.1667 37.666L36.1667 37.666C35.5218 37.666 35 38.1878 35 38.8327C35 39.4776 35.5218 39.9994 36.1667 39.9994L50.1667 39.9994C50.8116 39.9994 51.3334 39.4776 51.3334 38.8327C51.3334 38.1878 50.8116 37.666 50.1667 37.666Z" fill="white"/>
<path d="M50.1664 30.666L31.4997 30.666C30.8548 30.666 30.333 31.1878 30.333 31.8327C30.333 32.4776 30.8548 32.9994 31.4997 32.9994L50.1664 32.9994C50.8113 32.9994 51.3331 32.4776 51.3331 31.8327C51.3331 31.1878 50.8113 30.666 50.1664 30.666Z" fill="white"/>
<path d="M20.9997 35.3334C23.5723 35.3334 25.6664 33.2405 25.6664 30.6667C25.6664 28.0929 23.5723 26 20.9997 26C18.4271 26 16.333 28.0929 16.333 30.6667C16.333 33.2405 18.4272 35.3334 20.9997 35.3334ZM20.9997 28.3334C22.2872 28.3334 23.333 29.3805 23.333 30.6667C23.333 31.953 22.2871 33 20.9997 33C19.7123 33 18.6664 31.953 18.6664 30.6667C18.6664 29.3803 19.7124 28.3334 20.9997 28.3334Z" fill="white"/>
<path d="M27.9708 38.2193C26.3392 37.4354 23.8076 36.5 21.0003 36.5C18.193 36.5 15.6614 37.4354 14.0299 38.2193C12.5716 38.9211 11.667 40.3213 11.667 41.8731L11.667 42.4063C11.667 43.6527 12.7129 44.6667 14.0003 44.6667L28.0003 44.6667C29.2877 44.6667 30.3336 43.6527 30.3336 42.4063L30.3336 41.8731C30.3337 40.3213 29.4291 38.9211 27.9708 38.2193ZM28.0003 42.3334L14.0003 42.4063L14.0003 41.8731C14.0003 41.2259 14.3991 40.6312 15.0416 40.3224C16.4544 39.6434 18.6328 38.8333 21.0003 38.8333C23.3678 38.8333 25.5462 39.6433 26.9589 40.3224C27.6015 40.6312 28.0003 41.2259 28.0003 41.8731L28.0003 42.3334Z" fill="white"/>
</svg>
