<svg width="50" height="50" viewBox="0 0 50 50" fill="none" xmlns="http://www.w3.org/2000/svg">
<path d="M16.8463 41.0654C16.8944 41.0742 16.9432 41.0786 16.9922 41.0785C17.4161 41.0776 17.7694 40.7535 17.8069 40.3313C17.8443 39.909 17.5536 39.5278 17.1364 39.4523C13.6726 38.8278 10.4544 37.2414 7.84954 34.8744C8.63274 34.4495 9.4541 34.099 10.3028 33.8277C10.6045 34.4072 10.9225 34.9695 11.2676 35.5014C11.5138 35.8815 12.0216 35.9899 12.4016 35.7437C12.7816 35.4974 12.8901 34.9897 12.6438 34.6096C12.384 34.2088 12.1422 33.79 11.9061 33.3572C13.3562 32.9983 14.8294 32.7403 16.3151 32.5851C16.7588 32.5291 17.0757 32.1278 17.0274 31.6833C16.979 31.2388 16.5834 30.915 16.1381 30.9555C14.4621 31.1298 12.8019 31.4312 11.1717 31.8572C9.81496 28.6474 9.09158 25.2055 9.04134 21.7211L12.0569 21.7211C12.5096 21.7211 12.8766 21.3541 12.8766 20.9014C12.8766 20.4488 12.5096 20.0818 12.0569 20.0818L9.02823 20.0818C9.08653 16.5979 9.80988 13.1573 11.1594 9.94489C13.9434 10.6474 16.8006 11.0191 19.6717 11.0523L19.6717 18.8113C19.6717 19.264 20.0387 19.631 20.4913 19.631C20.944 19.631 21.311 19.264 21.311 18.8113L21.311 11.0523C24.1699 11.0193 27.0151 10.651 29.7881 9.95473C31.1573 13.1659 31.8916 16.6119 31.9504 20.1023C31.9517 20.321 32.042 20.5298 32.2005 20.6805C32.359 20.8313 32.572 20.911 32.7905 20.9014C33.243 20.8898 33.6003 20.5137 33.5889 20.0613C33.5317 16.4224 32.7867 12.8273 31.393 9.46539C32.4241 9.12296 33.4138 8.66659 34.3438 8.10473C37.3862 11.3856 39.1565 15.6454 39.3356 20.1162C39.3546 20.5689 39.737 20.9205 40.1897 20.9014C40.6424 20.8824 40.994 20.5 40.975 20.0474C40.5273 9.3246 31.8823 0.763651 21.1556 0.420785C10.429 0.0779187 1.25493 8.06929 0.123393 18.7416C-1.00815 29.4138 6.28623 39.1513 16.8463 41.0654ZM9.5897 32.3383C8.56362 32.6799 7.57863 33.1343 6.65282 33.6932C3.62647 30.419 1.86221 26.1758 1.67495 21.7211L7.402 21.7211C7.45399 25.3666 8.19632 28.9692 9.5897 32.3383ZM11.8889 8.44244C13.8233 4.8408 16.5799 2.45883 19.6717 2.10063L19.6717 9.41129C17.0494 9.3791 14.439 9.05414 11.8889 8.44244ZM21.311 9.41293L21.311 2.10391C24.3536 2.47194 27.1077 4.86129 29.0528 8.45555C26.5154 9.05926 23.919 9.38034 21.311 9.41293ZM33.1413 6.92112C32.3565 7.3483 31.5332 7.70067 30.6823 7.97358C29.8044 6.23128 28.636 4.6513 27.2274 3.30145C29.4065 4.13009 31.412 5.35761 33.1413 6.92112ZM10.3217 7.98096C9.46688 7.70838 8.63993 7.35515 7.852 6.92604C9.59509 5.35012 11.6168 4.11312 13.8135 3.2785C12.391 4.63637 11.2102 6.2266 10.3217 7.98096ZM6.65692 8.11457C7.58861 8.67543 8.57964 9.13122 9.61183 9.47358C8.20628 12.8371 7.45221 16.4369 7.3897 20.0818L1.65937 20.0818C1.85085 15.6257 3.62246 11.3834 6.65692 8.11457Z" fill="white"/>
<path d="M47.2257 22.5407L18.7158 22.5407L18.2371 19.9087C17.9864 18.5194 16.8733 17.4473 15.4756 17.2488L12.4109 16.8111C11.9627 16.7469 11.5473 17.0581 11.483 17.5062C11.4187 17.9544 11.7299 18.3698 12.1781 18.4341L15.2437 18.8718C15.9422 18.9715 16.4985 19.5071 16.6248 20.2013L17.5404 25.2382L19.4256 35.5923L19.4256 35.5988L19.4256 35.6128L20.365 40.7767C18.8743 41.3276 17.9933 42.8683 18.2746 44.4324C18.5558 45.9966 19.9184 47.1338 21.5076 47.1308L22.2453 47.1308C22.6134 48.5769 23.9154 49.5891 25.4076 49.5891C26.8998 49.5891 28.2019 48.5769 28.5699 47.1308L38.6404 47.1308C39.0085 48.5769 40.3105 49.5891 41.8027 49.5891C43.2949 49.5891 44.5969 48.5769 44.965 47.1308L46.7207 47.1308C47.1734 47.1308 47.5404 46.7638 47.5404 46.3111C47.5404 45.8584 47.1734 45.4915 46.7207 45.4915L44.965 45.4915C44.5969 44.0454 43.2949 43.0332 41.8027 43.0332C40.3105 43.0332 39.0085 44.0454 38.6404 45.4915L28.5715 45.4915C28.2035 44.0454 26.9014 43.0332 25.4093 43.0332C23.9171 43.0332 22.615 44.0454 22.247 45.4915L21.5093 45.4915C20.656 45.4892 19.9471 44.8327 19.8795 43.9821C19.8118 43.1315 20.408 42.3712 21.2502 42.2341L21.442 42.2021L27.747 41.1857L27.7511 41.1857L45.7019 38.2915C46.7353 38.1245 47.5497 37.3216 47.7314 36.2906L49.6486 25.4284C49.7754 24.712 49.5786 23.9764 49.111 23.4191C48.6434 22.8618 47.9531 22.5402 47.2257 22.5407ZM41.8027 44.6718C42.7081 44.6718 43.442 45.4058 43.442 46.3111C43.442 47.2165 42.7081 47.9505 41.8027 47.9505C40.8973 47.9505 40.1634 47.2165 40.1634 46.3111C40.1634 45.4058 40.8973 44.6718 41.8027 44.6718ZM25.4093 44.6718C26.3146 44.6718 27.0486 45.4058 27.0486 46.3111C27.0486 47.2165 26.3146 47.9505 25.4093 47.9505C24.5039 47.9505 23.7699 47.2165 23.7699 46.3111C23.7699 45.4058 24.5039 44.6718 25.4093 44.6718ZM21.2043 36.2243L26.4502 35.639L26.7945 39.6775L21.9707 40.4554L21.2043 36.2243ZM20.1937 30.6677L26.0019 30.3439L26.3142 34.0054L20.9101 34.6079L20.1937 30.6677ZM32.7863 28.3234L27.5002 28.6185L27.1215 24.18L32.7863 24.18L32.7863 28.3234ZM34.4256 24.18L39.9175 24.18L39.6084 27.9431L34.4256 28.2325L34.4256 24.18ZM32.7863 29.9661L32.7863 33.2833L27.9445 33.8234L27.6396 30.2529L32.7863 29.9661ZM28.0838 35.4579L32.7863 34.9325L32.7863 38.712L28.4215 39.4161L28.0838 35.4579ZM34.4256 34.7538L39.0978 34.2333L38.8093 37.7447L34.4256 38.4472L34.4256 34.7538ZM34.4256 33.1046L34.4256 29.8743L39.4773 29.5923L39.2314 32.5644L34.4256 33.1046ZM41.1297 29.5046L47.3248 29.1587L46.8732 31.7161L40.8896 32.3833L41.1297 29.5046ZM47.8511 24.4767C48.008 24.6619 48.0739 24.9076 48.0306 25.1464L47.615 27.5005L41.2625 27.8546L41.5658 24.18L47.2257 24.18C47.4682 24.1786 47.6986 24.286 47.8535 24.4726L47.8511 24.4767ZM25.4765 24.18L25.8625 28.7095L19.8986 29.0423L19.0158 24.18L25.4765 24.18ZM45.4396 36.671L40.4756 37.4718L40.7568 34.0439L46.5765 33.3947L46.1158 36.0046C46.0551 36.3479 45.7838 36.6153 45.4396 36.671Z" fill="white"/>
</svg>
