<svg width="22" height="23" viewBox="0 0 22 23" fill="none" xmlns="http://www.w3.org/2000/svg">
<g clip-path="url(#clip0_827_42997)">
<path d="M22 11.1324C22.0005 9.03015 21.3985 6.97178 20.2654 5.20104C19.1323 3.43029 17.5155 2.02133 15.6064 1.14097C13.6974 0.26062 11.576 -0.0542486 9.49358 0.233649C7.41113 0.521547 5.45479 1.40015 3.8562 2.76544C2.25761 4.13072 1.08373 5.92549 0.473544 7.93725C-0.136638 9.94901 -0.157563 12.0935 0.413248 14.1168C0.984059 16.14 2.1227 17.9574 3.69434 19.3536C5.26599 20.7498 7.20481 21.6664 9.28125 21.9949V14.3114H6.48862V11.1324H9.28125V8.70828C9.22112 8.1424 9.28619 7.57021 9.47186 7.03228C9.65753 6.49435 9.95924 6.00385 10.3556 5.59553C10.752 5.18721 11.2333 4.87108 11.7655 4.66953C12.2977 4.46799 12.8677 4.38596 13.4351 4.42928C14.2602 4.44012 15.0833 4.51181 15.8978 4.64378V7.3539H14.5117C14.2757 7.32303 14.0356 7.34564 13.8095 7.42006C13.5833 7.49449 13.3767 7.61881 13.2051 7.78385C13.0335 7.94888 12.9011 8.1504 12.8179 8.37349C12.7347 8.59658 12.7027 8.83553 12.7242 9.07265V11.1352H15.7754L15.2873 14.3142H12.7188V22.0018C15.3068 21.5924 17.6638 20.2725 19.3653 18.2799C21.0668 16.2872 22.0011 13.7527 22 11.1324V11.1324Z" fill="white"/>
</g>
<defs>
<clipPath id="clip0_827_42997">
<rect width="22" height="22" fill="white" transform="translate(0 0.0664062)"/>
</clipPath>
</defs>
</svg>
