<svg width="41" height="41" viewBox="0 0 41 41" fill="none" xmlns="http://www.w3.org/2000/svg">
<g clip-path="url(#clip0_827_43022)">
<path d="M39.519 26.8169C39.5147 24.1354 38.6343 21.5288 37.0117 19.3939C35.3892 17.259 33.1135 15.7129 30.531 14.9908C30.4363 12.7889 29.8408 10.6376 28.7899 8.70029C27.7389 6.76299 26.2602 5.09073 24.4661 3.81065C22.6719 2.53056 20.6096 1.67633 18.4358 1.31284C16.262 0.949356 14.0339 1.0861 11.9209 1.71287C9.80795 2.33963 7.86563 3.43989 6.24162 4.92991C4.61761 6.41993 3.35464 8.26052 2.54869 10.3119C1.74273 12.3632 1.41502 14.5713 1.59044 16.7683C1.76585 18.9653 2.43978 21.0934 3.56102 22.9908L1.60301 30.0659L8.67701 28.1119C10.7247 29.3235 13.0399 30.0105 15.417 30.1119C15.9214 31.9269 16.8368 33.6014 18.0922 35.0058C19.3476 36.4103 20.9094 37.507 22.6566 38.211C24.4039 38.9151 26.2897 39.2076 28.1681 39.0659C30.0466 38.9242 31.8672 38.3521 33.489 37.3939L39.463 39.0469L37.81 33.0719C38.9322 31.1787 39.5226 29.0177 39.519 26.8169ZM9.029 25.7009L4.79301 26.8729L5.96501 22.6368L5.69801 22.2198C4.07256 19.6706 3.44549 16.6111 3.93708 13.628C4.42868 10.6449 6.00435 7.94824 8.36183 6.0554C10.7193 4.16255 13.6926 3.2068 16.7115 3.37131C19.7303 3.53583 22.5822 4.80905 24.72 6.94688C26.8578 9.0847 28.1311 11.9366 28.2956 14.9554C28.4601 17.9743 27.5043 20.9476 25.6115 23.305C23.7186 25.6625 21.022 27.2382 18.0389 27.7298C15.0558 28.2214 11.9962 27.5943 9.447 25.9688L9.029 25.7009ZM36.273 35.8459L33.129 34.9759L32.71 35.2489C31.4243 36.0818 29.9652 36.6099 28.4443 36.7927C26.9233 36.9755 25.3807 36.8083 23.9342 36.3038C22.4877 35.7993 21.1757 34.9708 20.0983 33.8817C19.021 32.7926 18.2068 31.4717 17.718 30.0199C20.9621 29.6386 23.983 28.175 26.2928 25.8653C28.6026 23.5557 30.0665 20.5349 30.448 17.2909C31.8997 17.7798 33.2205 18.5941 34.3095 19.6715C35.3985 20.7489 36.2268 22.0608 36.7313 23.5072C37.2358 24.9536 37.4031 26.4963 37.2203 28.0172C37.0376 29.5381 36.5097 30.9971 35.677 32.2828L35.403 32.7019L36.273 35.8459ZM14.935 21.2169H17.159V23.4409H14.935V21.2169ZM18.273 12.2429C18.2745 12.5521 18.2108 12.8582 18.086 13.1411C17.9613 13.424 17.7783 13.6774 17.549 13.8849L14.936 16.2768V18.9908H17.16V17.2599L19.05 15.5299C19.596 15.0304 20.0088 14.4026 20.251 13.7033C20.4932 13.0041 20.5571 12.2556 20.4371 11.5254C20.317 10.7952 20.0167 10.1064 19.5633 9.52158C19.1099 8.93672 18.5179 8.47422 17.8407 8.17588C17.1635 7.87754 16.4226 7.75276 15.685 7.81296C14.9475 7.87317 14.2366 8.11639 13.6168 8.52061C12.997 8.92482 12.4877 9.47726 12.1352 10.1279C11.7827 10.7785 11.5981 11.5069 11.598 12.2469H13.822C13.8343 11.6651 14.0741 11.1112 14.49 10.7041C14.9058 10.297 15.4646 10.0691 16.0465 10.0691C16.6285 10.0691 17.1872 10.297 17.6031 10.7041C18.0189 11.1112 18.2587 11.6651 18.271 12.2469L18.273 12.2429Z" fill="white"/>
<path d="M40.5659 40.1477L33.593 38.2187C31.9095 39.1568 30.039 39.7101 28.1161 39.839C26.1932 39.9678 24.2656 39.669 22.472 38.9639C20.6785 38.2587 19.0634 37.1648 17.7431 35.761C16.4227 34.3571 15.4299 32.6781 14.836 30.8447C12.6355 30.6715 10.4988 30.0233 8.57297 28.9447L0.500977 31.1737L2.73495 23.1017C1.56857 21.0168 0.905596 18.6883 0.79895 16.3017C0.622266 12.3037 2.02269 8.39618 4.69867 5.42052C7.37464 2.44485 11.1122 0.639079 15.1064 0.391951C19.1007 0.144823 23.0323 1.47612 26.0547 4.09923C29.0771 6.72234 30.9485 10.4274 31.266 14.4167C33.8812 15.2766 36.1598 16.9373 37.7789 19.1638C39.3981 21.3903 40.2759 24.0698 40.288 26.8227C40.2903 29.0471 39.7218 31.2349 38.637 33.1767L40.5659 40.1477ZM8.78796 27.2867L9.06897 27.4527C11.0088 28.5964 13.2002 29.2451 15.45 29.3417L16.009 29.3657L16.159 29.9037C16.6319 31.6048 17.49 33.1744 18.6668 34.4908C19.8436 35.8072 21.3075 36.8352 22.9453 37.4951C24.583 38.155 26.3507 38.4292 28.1114 38.2965C29.8721 38.1638 31.5787 37.6277 33.099 36.7297L33.38 36.5637L38.362 37.9418L36.9839 32.9587L37.151 32.6777C38.2007 30.9053 38.7534 28.8827 38.751 26.8227C38.74 24.3106 37.9119 21.8703 36.3919 19.8702C34.8719 17.8702 32.7424 16.4189 30.325 15.7357L29.789 15.5857L29.764 15.0287C29.6048 11.3912 28.0072 7.96599 25.3227 5.50645C22.6381 3.04691 19.0864 1.75455 15.449 1.91368C11.8115 2.07281 8.38627 3.67038 5.92673 6.35496C3.46719 9.03955 2.17482 12.5913 2.33395 16.2287C2.43448 18.4747 3.08301 20.6619 4.22296 22.5997L4.38797 22.8807L2.70496 28.9628L8.78796 27.2867ZM27.266 37.6417C26.4989 37.6416 25.734 37.5605 24.9839 37.3998C23.1471 37.0074 21.4441 36.1436 20.0423 34.8934C18.6405 33.6433 17.5882 32.0499 16.989 30.2698L16.689 29.3697L17.63 29.2588C20.7054 28.9052 23.5706 27.5212 25.7596 25.3323C27.9485 23.1433 29.3324 20.2781 29.686 17.2027L29.797 16.2627L30.697 16.5627C32.2597 17.089 33.6816 17.9654 34.8539 19.1251C36.0262 20.2848 36.9179 21.6971 37.461 23.2541C38.0041 24.8111 38.1842 26.4716 37.9875 28.1089C37.7907 29.7461 37.2224 31.3166 36.326 32.7007L36.241 32.8318L37.38 36.9487L33.263 35.8087L33.134 35.8927C31.3888 37.0318 29.35 37.6392 27.266 37.6407V37.6417ZM18.785 30.6417C18.9771 31.0662 19.2007 31.4756 19.4539 31.8667C20.7929 33.9329 22.8977 35.3827 25.3054 35.8971C27.7132 36.4115 30.2266 35.9484 32.293 34.6097L33.001 34.1477L35.172 34.7477L34.572 32.5777L35.035 31.8677C35.7613 30.7457 36.2368 29.4802 36.429 28.1576C36.6213 26.835 36.5257 25.4865 36.1489 24.2042C35.772 22.9219 35.1228 21.7361 34.2456 20.7278C33.3684 19.7194 32.2838 18.9123 31.0659 18.3617C30.5134 21.4156 29.0412 24.2279 26.8464 26.4221C24.6516 28.6163 21.839 30.0879 18.785 30.6398V30.6417ZM16.043 28.6577C13.5601 28.6605 11.128 27.9541 9.03296 26.6217L8.90295 26.5387L3.68997 27.9807L5.13196 22.7677L5.04996 22.6387C3.48579 20.1953 2.7796 17.3009 3.04282 14.4117C3.30603 11.5226 4.52365 8.80328 6.5036 6.68284C8.48355 4.56241 11.1131 3.16149 13.9775 2.70115C16.8418 2.24082 19.7779 2.74722 22.3226 4.14049C24.8672 5.53376 26.8756 7.73468 28.0308 10.3959C29.186 13.057 29.4224 16.027 28.7025 18.8374C27.9827 21.6478 26.3477 24.1386 24.0554 25.9167C21.7631 27.6949 18.9441 28.6593 16.043 28.6577ZM9.15396 24.8738L9.85995 25.3257C12.2492 26.8489 15.1168 27.4365 17.9126 26.9756C20.7084 26.5147 23.2356 25.0378 25.0095 22.8282C26.7834 20.6187 27.6792 17.832 27.5249 15.0027C27.3707 12.1733 26.1773 9.50054 24.1737 7.49693C22.1701 5.49332 19.4973 4.29998 16.668 4.14574C13.8387 3.99149 11.052 4.88719 8.84244 6.66112C6.63289 8.43504 5.15606 10.9622 4.69516 13.758C4.23426 16.5538 4.82175 19.4214 6.34497 21.8107L6.79596 22.5157L5.89597 25.7748L9.15396 24.8738ZM17.927 24.2157H14.166V20.4547H17.927V24.2157ZM15.703 22.6787H16.39V21.9917H15.703V22.6787ZM17.927 19.7657H14.166V15.9457L17.029 13.3247C17.1699 13.1975 17.2843 13.0437 17.3655 12.8721C17.4467 12.7004 17.493 12.5143 17.502 12.3247V12.2527C17.502 11.8665 17.3486 11.4962 17.0755 11.2231C16.8024 10.9501 16.4321 10.7967 16.046 10.7967C15.6598 10.7967 15.2895 10.9501 15.0164 11.2231C14.7434 11.4962 14.59 11.8665 14.59 12.2527V13.0217H10.8289V12.2527C10.8301 11.528 10.9819 10.8116 11.2745 10.1487C11.5671 9.48574 11.9943 8.89086 12.529 8.40172C13.3858 7.61893 14.479 7.14378 15.6359 7.05125C16.7928 6.95872 17.9476 7.25409 18.918 7.89073L19.018 7.5847V7.96165C19.3386 8.185 19.6334 8.44327 19.897 8.73167C20.8293 9.75373 21.3182 11.1039 21.2563 12.4859C21.1944 13.868 20.5869 15.1691 19.567 16.1037L17.927 17.6037V19.7657ZM15.703 18.2287H16.39V16.9287L17.502 15.9117V14.9757L15.702 16.6227L15.703 18.2287ZM18.518 13.9418L18.018 15.4418L18.529 14.9747C19.1948 14.3645 19.6135 13.5312 19.7057 12.6328C19.7978 11.7344 19.557 10.8333 19.029 10.1007L19.0399 12.2497C19.0415 12.8528 18.8599 13.4422 18.519 13.9397L18.518 13.9418ZM12.447 11.4847H13.152C13.287 10.976 13.5537 10.5118 13.9254 10.1391C14.2971 9.76646 14.7606 9.49837 15.269 9.36204C15.7773 9.22571 16.3127 9.22594 16.821 9.36265C17.3293 9.49936 17.7926 9.76777 18.164 10.1407L18.403 9.42467C17.719 8.85506 16.852 8.55245 15.9622 8.57286C15.0723 8.59327 14.22 8.93539 13.563 9.53575C12.9963 10.0529 12.6048 10.7338 12.443 11.4837L12.447 11.4847Z" fill="white"/>
</g>
<defs>
<clipPath id="clip0_827_43022">
<rect width="40.065" height="39.782" fill="white" transform="translate(0.500977 0.364746)"/>
</clipPath>
</defs>
</svg>
