<svg width="22" height="23" viewBox="0 0 22 23" fill="none" xmlns="http://www.w3.org/2000/svg">
<g clip-path="url(#clip0_827_42999)">
<path d="M16.6989 6.7379C17.4279 6.7379 18.0189 6.14692 18.0189 5.4179C18.0189 4.68888 17.4279 4.0979 16.6989 4.0979C15.9699 4.0979 15.3789 4.68888 15.3789 5.4179C15.3789 6.14692 15.9699 6.7379 16.6989 6.7379Z" fill="white"/>
<path d="M11 16.5664C7.96675 16.5664 5.5 14.0997 5.5 11.0664C5.5 8.03316 7.96675 5.56641 11 5.56641C14.0332 5.56641 16.5 8.03316 16.5 11.0664C16.5 14.0997 14.0332 16.5664 11 16.5664ZM11 8.31641C9.48337 8.31641 8.25 9.54978 8.25 11.0664C8.25 12.583 9.48337 13.8164 11 13.8164C12.5166 13.8164 13.75 12.583 13.75 11.0664C13.75 9.54978 12.5166 8.31641 11 8.31641Z" fill="white"/>
<path d="M16.5 22.0664H5.5C2.673 22.0664 0 19.3934 0 16.5664V5.56641C0 2.73941 2.673 0.0664062 5.5 0.0664062H16.5C19.327 0.0664062 22 2.73941 22 5.56641V16.5664C22 19.3934 19.327 22.0664 16.5 22.0664ZM5.5 2.81641C4.21438 2.81641 2.75 4.28078 2.75 5.56641V16.5664C2.75 17.8768 4.18962 19.3164 5.5 19.3164H16.5C17.7856 19.3164 19.25 17.852 19.25 16.5664V5.56641C19.25 4.28078 17.7856 2.81641 16.5 2.81641H5.5Z" fill="white"/>
</g>
<defs>
<clipPath id="clip0_827_42999">
<rect width="22" height="22" fill="white" transform="translate(0 0.0664062)"/>
</clipPath>
</defs>
</svg>
