<svg width="35" height="51" viewBox="0 0 35 51" fill="none" xmlns="http://www.w3.org/2000/svg">
<path d="M34.8565 15.6223C33.6433 7.39325 26.787 1.10787 18.4954 0.711661C11.2102 0.363936 4.50245 4.51863 1.63169 11.2265C-0.00220831 15.0432 -0.385348 18.9582 1.24994 22.876C2.11616 24.9513 3.06846 27.0044 4.1568 28.973C6.67219 33.5211 9.74286 37.7063 12.9399 41.7973C13.0912 41.9898 13.2355 42.1866 13.4007 42.4054C12.8052 42.5495 12.2985 42.6507 11.8029 42.7961C10.6396 43.1341 9.5027 43.5442 8.58233 44.374C7.37184 45.4615 7.34685 46.9411 8.57956 48.0023C9.09319 48.4442 9.70538 48.81 10.3314 49.0746C12.708 50.0803 15.2276 50.3408 17.7791 50.3242C20.207 50.3089 22.6016 50.0388 24.8727 49.1037C25.6931 48.767 26.4608 48.3389 27.0285 47.631C27.7532 46.725 27.7768 45.6084 26.998 44.7522C26.5885 44.3034 26.086 43.8712 25.5376 43.6329C24.3771 43.1231 23.1597 42.7462 21.9131 42.296C22.0158 42.1644 22.163 41.9801 22.3032 41.7876C24.0981 39.3424 25.9402 36.9305 27.6685 34.4396C29.9701 31.1245 32.0482 27.6735 33.6044 23.9331C34.7163 21.2649 35.2869 18.5454 34.8565 15.6223ZM31.6429 24.3251C29.9063 28.1723 27.6588 31.7285 25.1725 35.1212C22.8099 38.3436 20.3042 41.4634 17.861 44.6276C17.7999 44.7079 17.7249 44.7786 17.5792 44.9365C16.0313 42.979 14.496 41.0949 13.0245 39.1651C9.88445 35.0533 6.90957 30.8294 4.51495 26.23C3.47242 24.2254 2.54095 22.1709 2.08979 19.9404C1.57616 17.3942 1.98845 14.9282 2.89633 12.5426C5.33398 6.12842 11.4309 2.12611 18.3218 2.3644C26.0388 2.63038 32.5757 8.87004 33.3018 16.5532C33.5641 19.3475 32.7562 21.8592 31.6429 24.3251Z" fill="white"/>
<path d="M17.6082 4.83301C10.2814 4.83855 4.35244 10.7762 4.35938 18.1034C4.36632 25.3613 10.3175 31.3058 17.5763 31.3045C24.9379 31.3045 30.8821 25.3737 30.8807 18.0299C30.8779 10.7554 24.9157 4.82747 17.6082 4.83301ZM17.618 29.649C11.1643 29.6268 5.99467 24.4234 6.01827 17.9731C6.04048 11.6421 11.2726 6.47328 17.6485 6.48713C24.1105 6.50098 29.2343 11.7044 29.2204 18.2378C29.2065 24.476 23.9231 29.6711 17.618 29.649Z" fill="white"/>
</svg>
