<svg width="215" height="51" viewBox="0 0 215 51" fill="none" xmlns="http://www.w3.org/2000/svg">
<path d="M21.0784 36.6957C21.8048 36.6957 22.4729 36.4687 23.0955 36.0147C23.7116 35.5607 24.1267 34.951 24.3472 34.1922L27.0712 24.6128C27.175 24.2172 27.3566 24.0161 27.616 24.0161C27.83 24.0161 27.9987 24.2172 28.1024 24.6128L30.8264 34.1922C31.1118 34.951 31.5593 35.5607 32.1625 36.0147C32.7592 36.4687 33.4012 36.6957 34.0952 36.6957C34.8605 36.6957 35.5415 36.4492 36.1641 35.9628C36.7803 35.4763 37.1629 34.8278 37.3056 34.03L40.6846 16.3306C40.756 15.6042 40.5485 15.0075 40.0555 14.5341C39.5691 14.0671 38.9595 13.8271 38.2331 13.8271C37.6494 13.8271 37.137 14.0087 36.683 14.3719C36.229 14.7351 35.9501 15.2281 35.8398 15.8377L33.8812 27.7584C33.8423 28.1929 33.6801 28.4134 33.3883 28.4134C33.1742 28.4134 33.0056 28.2124 32.9018 27.8168L30.2881 18.179C30.1065 17.4916 29.7628 16.9727 29.2504 16.629C28.738 16.2852 28.1997 16.1101 27.6225 16.1101C27.0388 16.1101 26.494 16.2852 25.9881 16.629C25.4757 16.9727 25.132 17.4916 24.9504 18.179L22.3431 27.8168C22.2329 28.2124 22.0708 28.4134 21.8502 28.4134C21.5973 28.4134 21.4352 28.1994 21.3573 27.7584L19.3987 15.8377C19.2949 15.2216 19.016 14.7351 18.5815 14.3719C18.1404 14.0087 17.6216 13.8271 16.999 13.8271C16.2726 13.8271 15.6629 14.0671 15.1765 14.5341C14.6836 15.0075 14.476 15.6042 14.5474 16.3306L17.868 34.03C18.0172 34.8278 18.3934 35.4699 19.0095 35.9628C19.6257 36.4492 20.3131 36.6957 21.0784 36.6957Z" fill="#D4AF37"/>
<path d="M47.3777 29.3409H56.4187C58.092 29.3409 58.9222 28.4005 58.9222 26.5067C58.9222 25.3782 58.6368 24.3081 58.0531 23.2963C57.4759 22.2845 56.6003 21.4414 55.4394 20.7928C54.2784 20.1378 52.8062 19.8135 51.0291 19.8135C48.5192 19.8135 46.4437 20.5788 44.7964 22.1029C43.1425 23.6271 42.3188 25.7349 42.3188 28.42C42.3188 31.0013 43.162 33.0183 44.8483 34.4906C46.5345 35.9628 48.6164 36.6957 51.081 36.6957C52.2744 36.6957 53.5066 36.5336 54.7519 36.2093C56.0036 35.8785 56.957 35.444 57.6121 34.8992C58.306 34.3219 58.6498 33.6993 58.6498 33.0443C58.6498 32.4995 58.4617 32.0325 58.0791 31.6304C57.6964 31.2348 57.2359 31.0337 56.6911 31.0337C56.289 31.0337 55.9063 31.1569 55.5431 31.4164C55.0048 31.812 54.3628 32.1168 53.6364 32.3114C52.91 32.5124 52.1901 32.6097 51.4637 32.6097C50.3027 32.6097 49.2585 32.3633 48.3311 31.8768C47.4036 31.3904 46.9431 30.7224 46.9431 29.8922C46.9431 29.5225 47.0858 29.3409 47.3777 29.3409ZM48.0587 24.3081C48.7656 23.8216 49.6801 23.5752 50.8086 23.5752C51.8658 23.5752 52.7219 23.8022 53.3964 24.2562C54.0709 24.7102 54.4017 25.2096 54.4017 25.7544C54.4017 25.9684 54.3368 26.0981 54.2136 26.137C54.0904 26.1759 53.9866 26.1954 53.9152 26.1954H47.436C47.1442 26.1954 46.995 26.0657 46.995 25.8127C46.995 25.2939 47.3452 24.7945 48.0587 24.3081Z" fill="#D4AF37"/>
<path d="M88.9707 24.2244C89.5868 23.2061 89.8981 22.1165 89.8981 20.9556C89.8981 18.9969 89.2171 17.3625 87.8551 16.0524C86.4932 14.7488 84.7031 14.0938 82.4915 14.0938H77.05C75.9215 14.0938 75.0265 14.418 74.3585 15.0731C73.6839 15.7281 73.3467 16.5778 73.3467 17.6349V34.4069C73.3467 35.023 73.5802 35.5613 74.0536 36.0153C74.5206 36.4693 75.0848 36.6963 75.7399 36.6963C76.3885 36.6963 76.9527 36.4693 77.4262 36.0153C77.8931 35.5613 78.1331 35.023 78.1331 34.4069V29.0692C78.1331 28.3428 78.4898 27.9796 79.2162 27.9796H80.6366C81.4343 27.9796 82.1283 28.1677 82.7315 28.5503C83.3281 28.933 83.8081 29.5556 84.1713 30.4312L86.2402 35.3862C86.4542 35.8597 86.7591 36.2034 87.1417 36.4239C87.5244 36.638 87.9135 36.7482 88.3091 36.7482C88.9253 36.7482 89.4895 36.5407 89.9954 36.1256C90.5078 35.7105 90.7607 35.1722 90.7607 34.5172C90.7607 34.2253 90.6699 33.8621 90.4883 33.4276L88.6918 29.2897C88.4389 28.6736 88.1016 28.1482 87.6865 27.7137C87.2714 27.2791 86.8045 26.9354 86.2986 26.676C87.466 26.0598 88.3545 25.2426 88.9707 24.2244ZM84.4242 23.1348C83.8989 23.6472 83.179 23.9001 82.271 23.9001H78.9503C78.399 23.9001 78.1331 23.6277 78.1331 23.0829V19.2693C78.1331 18.7245 78.399 18.4521 78.9503 18.4521H82.271C83.179 18.4521 83.8989 18.6986 84.4242 19.185C84.9496 19.6714 85.2155 20.3395 85.2155 21.1696C85.2155 21.9738 84.9496 22.6289 84.4242 23.1348Z" fill="#D4AF37"/>
<path d="M109.141 14.4822C108.687 14.0477 108.116 13.8271 107.429 13.8271C106.702 13.8271 106.106 14.0412 105.632 14.4822C105.159 14.9167 104.925 15.481 104.925 16.1685V32.6097C104.925 33.6604 105.256 34.5165 105.905 35.1715C106.56 35.8266 107.409 36.1509 108.466 36.1509H116.308C116.963 36.1509 117.495 35.9433 117.916 35.5217C118.331 35.1067 118.539 34.5683 118.539 33.9133C118.539 33.2582 118.331 32.7264 117.916 32.3048C117.495 31.8898 116.963 31.6822 116.308 31.6822H111.463C110.373 31.6822 109.828 31.1374 109.828 30.0478V16.1685C109.822 15.481 109.595 14.9167 109.141 14.4822Z" fill="#D4AF37"/>
<path d="M123.928 35.6058C125.232 36.3321 126.665 36.6953 128.228 36.6953C129.83 36.6953 131.27 36.3321 132.554 35.6058C133.845 34.8794 134.87 33.8741 135.629 32.5834C136.394 31.2993 136.77 29.8335 136.77 28.1991C136.77 26.5258 136.387 25.0665 135.629 23.8148C134.87 22.5631 133.845 21.5837 132.554 20.8703C131.264 20.1634 129.824 19.8066 128.228 19.8066C126.672 19.8066 125.232 20.1634 123.928 20.8703C122.618 21.5772 121.574 22.5566 120.796 23.8148C120.018 25.0665 119.628 26.5258 119.628 28.1991C119.628 29.8335 120.018 31.2928 120.796 32.5834C121.574 33.8741 122.618 34.8794 123.928 35.6058ZM125.478 25.313C126.224 24.5866 127.139 24.2234 128.228 24.2234C129.357 24.2234 130.271 24.5866 130.978 25.313C131.685 26.0394 132.036 26.9993 132.036 28.1991C132.036 29.36 131.685 30.3329 130.978 31.1112C130.271 31.8895 129.35 32.2786 128.228 32.2786C127.145 32.2786 126.224 31.8895 125.478 31.1112C124.733 30.3329 124.363 29.36 124.363 28.1991C124.363 26.9993 124.733 26.0394 125.478 25.313Z" fill="#D4AF37"/>
<path d="M148.204 24.2234C148.71 24.2234 149.177 24.2753 149.592 24.3855C150.007 24.4958 150.494 24.6904 151.038 24.9822C151.369 25.1962 151.726 25.3065 152.128 25.3065C152.744 25.3065 153.263 25.073 153.678 24.5996C154.093 24.1261 154.301 23.6008 154.301 23.0171C154.301 22.3296 154.028 21.7653 153.483 21.3308C152.789 20.7471 151.979 20.3514 151.032 20.1374C150.085 19.9169 149.125 19.8066 148.146 19.8066C145.603 19.8066 143.534 20.5395 141.939 22.0118C140.337 23.4775 139.526 25.4686 139.487 27.9721C139.487 29.7881 139.883 31.3447 140.681 32.6548C141.478 33.9649 142.542 34.9637 143.865 35.6512C145.188 36.3386 146.615 36.6889 148.139 36.6889C149.19 36.6889 150.273 36.5137 151.376 36.17C152.478 35.8263 153.522 35.2555 154.502 34.4578C154.794 34.1659 154.995 33.8676 155.098 33.5628C155.209 33.2579 155.26 32.9726 155.26 32.7196C155.26 32.1035 155.053 31.5587 154.638 31.0852C154.223 30.6183 153.723 30.3783 153.14 30.3783C152.744 30.3783 152.322 30.5404 151.888 30.8647C150.759 31.8116 149.566 32.2786 148.295 32.2786C147.166 32.2786 146.187 31.9089 145.357 31.1631C144.52 30.4237 144.105 29.3795 144.105 28.0305C144.105 26.8695 144.488 25.9421 145.247 25.2546C146.025 24.5736 147.011 24.2234 148.204 24.2234Z" fill="#D4AF37"/>
<path d="M169.659 35.1132C169.944 36.1639 170.69 36.6957 171.89 36.6957C172.61 36.6957 173.2 36.4946 173.66 36.0925C174.114 35.6969 174.341 35.1845 174.341 34.5684V22.2132C174.341 21.6295 174.114 21.1301 173.66 20.715C173.206 20.2999 172.616 20.0859 171.89 20.0859C171.345 20.0859 170.871 20.235 170.469 20.5204C170.074 20.8123 169.795 21.1755 169.652 21.61C168.381 20.4166 166.889 19.8135 165.183 19.8135C162.784 19.8135 160.858 20.5658 159.385 22.0705C157.92 23.5752 157.18 25.6182 157.18 28.193C157.18 30.7678 157.933 32.8302 159.437 34.3738C160.942 35.9174 162.914 36.6892 165.346 36.6892C167.058 36.6957 168.491 36.1704 169.659 35.1132ZM161.928 28.1995C161.928 26.9996 162.284 26.0397 162.985 25.3133C163.692 24.5869 164.613 24.2237 165.735 24.2237C166.896 24.2237 167.823 24.5869 168.511 25.3133C169.198 26.0397 169.542 26.9996 169.542 28.1995C169.542 29.3604 169.198 30.3332 168.511 31.1115C167.817 31.8898 166.896 32.279 165.735 32.279C164.606 32.279 163.692 31.8898 162.985 31.1115C162.278 30.3332 161.928 29.3604 161.928 28.1995Z" fill="#D4AF37"/>
<path d="M182.591 36.0665C183.045 35.6514 183.272 35.1326 183.272 34.5164V14.3719C183.272 13.7558 183.058 13.2369 182.624 12.8218C182.183 12.4068 181.625 12.1992 180.937 12.1992C180.211 12.1992 179.621 12.4068 179.167 12.8218C178.713 13.2434 178.486 13.7363 178.486 14.32V34.5748C178.486 35.1909 178.719 35.7033 179.193 36.0989C179.66 36.5011 180.243 36.7021 180.931 36.7021C181.58 36.6956 182.137 36.4816 182.591 36.0665Z" fill="#D4AF37"/>
<path d="M193.883 32.2851C193.195 32.2851 192.436 32.1878 191.593 31.9867C190.763 31.7857 190.017 31.5392 189.362 31.2539C189.077 31.1112 188.785 31.0398 188.493 31.0398C187.871 31.0398 187.358 31.2928 186.943 31.7987C186.522 32.311 186.314 32.8688 186.314 33.4849C186.314 33.7768 186.392 34.0751 186.528 34.38C186.677 34.6913 186.911 34.9507 187.235 35.1712C188.837 36.183 190.867 36.6953 193.331 36.6953C195.478 36.6953 197.197 36.2154 198.507 35.249C199.817 34.2892 200.466 32.992 200.466 31.3576C200.466 30.1643 200.213 29.2174 199.7 28.5234C199.188 27.8359 198.565 27.3365 197.82 27.0252C197.074 26.7204 196.302 26.4999 195.504 26.3701C194.706 26.2404 193.999 26.1431 193.383 26.0718C192.404 25.9291 191.775 25.754 191.503 25.553C191.23 25.3519 191.094 25.1249 191.094 24.872C191.094 24.2947 191.781 24.0029 193.163 24.0029C193.85 24.0029 194.531 24.0742 195.199 24.2169C195.874 24.3661 196.425 24.5801 196.86 24.872C197.152 25.0146 197.456 25.086 197.787 25.086C198.403 25.086 198.916 24.872 199.311 24.4309C199.707 23.9964 199.908 23.5035 199.908 22.9652C199.908 22.349 199.655 21.8042 199.149 21.3308C198.604 20.8249 197.8 20.4422 196.723 20.1893C195.653 19.9364 194.518 19.8066 193.318 19.8066C191.256 19.8066 189.602 20.2801 188.363 21.2205C187.131 22.1674 186.509 23.4516 186.509 25.086C186.509 26.1367 186.755 26.9733 187.241 27.5895C187.734 28.2056 188.337 28.6661 189.064 28.9774C189.79 29.2887 190.523 29.4962 191.269 29.6065C192.008 29.7168 192.618 29.7881 193.091 29.8205C194.291 29.9308 195.057 30.1189 195.381 30.3913C195.712 30.6637 195.874 30.9815 195.874 31.3447C195.9 31.9738 195.225 32.2851 193.883 32.2851Z" fill="#D4AF37"/>
<path d="M203.332 0H11.6935C5.2532 0 0.0322266 5.22097 0.0322266 11.6612V15.8575C0.0322266 17.2778 1.17371 18.4323 2.59407 18.4453C4.03389 18.4582 5.20131 17.2973 5.20131 15.8575V11.6612C5.20131 8.08116 8.1069 5.17557 11.687 5.17557H203.326C206.912 5.17557 209.811 8.08116 209.811 11.6612V15.8834C209.811 17.3103 210.972 18.4712 212.399 18.4712C213.826 18.4712 214.987 17.3103 214.987 15.8834V11.6612C214.994 5.22097 209.773 0 203.332 0Z" fill="#D4AF37"/>
<path d="M212.406 30.4893C210.979 30.4893 209.818 31.6502 209.818 33.077V38.8817C209.818 42.4229 206.913 45.3674 203.333 45.3674H11.6938C8.10725 45.3674 5.20815 42.4164 5.20815 38.8817V33.0965C5.20815 31.6567 4.03424 30.4957 2.60091 30.5087C1.18054 30.5217 0.0390625 31.6761 0.0390625 33.0965V38.8817C0.0390625 45.2766 5.26003 50.4976 11.7003 50.4976H203.339C209.779 50.4976 215 45.2766 215 38.8817V33.077C214.994 31.6502 213.839 30.4893 212.406 30.4893Z" fill="#D4AF37"/>
<path d="M212.399 27.0584C213.828 27.0584 214.987 25.8998 214.987 24.4706C214.987 23.0414 213.828 21.8828 212.399 21.8828C210.97 21.8828 209.812 23.0414 209.812 24.4706C209.812 25.8998 210.97 27.0584 212.399 27.0584Z" fill="#D4AF37"/>
<path d="M2.58779 27.0584C4.01698 27.0584 5.17557 25.8998 5.17557 24.4706C5.17557 23.0414 4.01698 21.8828 2.58779 21.8828C1.15859 21.8828 0 23.0414 0 24.4706C0 25.8998 1.15859 27.0584 2.58779 27.0584Z" fill="#D4AF37"/>
</svg>
