<svg width="58" height="56" viewBox="0 0 58 56" fill="none" xmlns="http://www.w3.org/2000/svg">
<path d="M56.7682 6.83619L51.0491 1.11744C50.4916 0.559626 49.5869 0.558927 49.0287 1.11674C49.0287 1.11709 49.0284 1.11744 49.0277 1.11744L31.8717 18.274C31.6035 18.5419 31.4531 18.9053 31.4531 19.2844V25.0035C31.4531 25.7929 32.0931 26.4329 32.8825 26.4329H38.6016C38.9807 26.4329 39.344 26.2825 39.6119 26.0142L56.7682 8.85797C57.3264 8.30016 57.3267 7.39541 56.7692 6.83724C56.7689 6.83724 56.7689 6.83654 56.7682 6.83619ZM38.0095 23.5738H34.3122V19.8769L50.0387 4.15028L53.7357 7.84726L38.0095 23.5738Z" fill="white"/>
<path d="M52.8981 17.8551C52.1088 17.8551 51.4688 18.4951 51.4688 19.2845V39.3001C51.4663 41.6677 49.5474 43.5867 47.1797 43.5895H32.8828C32.5733 43.5888 32.2722 43.6892 32.0249 43.8752L22.875 50.7379V45.0192C22.875 44.2295 22.235 43.5895 21.4453 43.5895H7.14844C4.78078 43.5867 2.86182 41.6677 2.85973 39.3004V13.5657C2.86217 11.1984 4.78078 9.27944 7.14844 9.27699H32.8828C33.6725 9.27699 34.3125 8.63699 34.3125 7.84731C34.3125 7.05797 33.6725 6.41797 32.8828 6.41797H7.14844C3.20211 6.42182 0.00384701 9.62008 0 13.5657V39.3004C0.00384701 43.2464 3.20211 46.4447 7.14844 46.4489H20.0156V53.5973C20.0156 54.3866 20.6556 55.0266 21.4453 55.0266C21.7548 55.0266 22.0556 54.9263 22.3032 54.7409L33.3609 46.4485H47.1797C51.126 46.4447 54.324 43.2464 54.3281 39.3001V19.2848C54.3281 18.4951 53.6878 17.8551 52.8981 17.8551Z" fill="white"/>
<path d="M24.3044 14.9956H10.0082C9.21813 14.9956 8.57812 15.6356 8.57812 16.4253C8.57812 17.2146 9.21813 17.8546 10.0082 17.8546H24.3044C25.094 17.8546 25.7344 17.2146 25.7344 16.4253C25.7344 15.6356 25.094 14.9956 24.3044 14.9956Z" fill="white"/>
<path d="M10.0082 26.4331H24.3044C25.094 26.4331 25.7344 25.7928 25.7344 25.0034C25.7344 24.2137 25.094 23.5737 24.3044 23.5737H10.0082C9.21813 23.5737 8.57812 24.2137 8.57812 25.0034C8.57812 25.7928 9.21813 26.4331 10.0082 26.4331Z" fill="white"/>
<path d="M10.0082 35.0109H44.3203C45.11 35.0109 45.7497 34.3709 45.7497 33.5812C45.7497 32.7919 45.1097 32.1519 44.3203 32.1519H10.0082C9.21813 32.1519 8.57812 32.7919 8.57812 33.5812C8.57812 34.3709 9.21813 35.0109 10.0082 35.0109Z" fill="white"/>
</svg>
