<svg width="130" height="101" viewBox="0 0 130 101" fill="none" xmlns="http://www.w3.org/2000/svg">
<g clip-path="url(#clip0_827_42952)">
<path d="M107.148 68.6889C107.149 68.6883 107.149 68.6875 107.148 68.687L63.6221 26.2846C60.9303 23.6624 57.7346 21.5823 54.2176 20.1632C50.7006 18.744 46.9311 18.0136 43.1243 18.0137C36.3552 18.0137 30.0924 21.599 26.6651 27.4363L23.5067 32.8154C16.7494 44.324 18.7188 58.9584 28.2781 68.2711L53.9352 93.2665C56.6468 95.9081 60.9695 95.9082 63.6811 93.2666L66.6853 90.34C67.7252 89.327 69.3829 89.327 70.4227 90.34C71.7417 91.5303 73.4826 92.1765 75.2802 92.143C77.0778 92.1096 78.7922 91.399 80.0635 90.1606C81.3348 88.9221 82.0641 87.252 82.0985 85.5009C82.1328 83.7498 81.4695 82.0538 80.2476 80.7689L84.8646 85.2666C86.1835 86.4569 87.9245 87.1031 89.7221 87.0697C91.5197 87.0362 93.234 86.3257 94.5053 85.0872C95.7766 83.8488 96.506 82.1787 96.5404 80.4275C96.5747 78.6764 95.9113 76.9804 94.6895 75.6956L97.323 78.261C98.6419 79.4512 100.383 80.0975 102.18 80.064C103.978 80.0306 105.692 79.32 106.964 78.0816C108.235 76.8431 108.964 75.173 108.999 73.4219C109.033 71.6712 108.37 69.9755 107.149 68.6907C107.148 68.6902 107.148 68.6895 107.148 68.6889Z" fill="white"/>
<path d="M101.653 25.4885C96.6347 15.9708 86.7595 10.0137 75.9999 10.0137H65.7359C64.3106 10.0133 62.8993 10.3141 61.5825 10.8989C60.2657 11.4837 59.0693 12.341 58.0616 13.4219L48.1242 24.0784C47.4699 24.7284 46.9446 25.5133 46.5798 26.3861C46.215 27.2589 46.0182 28.2017 46.0012 29.158C45.9842 30.1143 46.1473 31.0644 46.4807 31.9516C46.8141 32.8387 47.3111 33.6445 47.9418 34.3208C48.5725 34.9972 49.3239 35.5301 50.1512 35.8876C50.9784 36.2452 51.8645 36.4201 52.7562 36.4018C53.648 36.3836 54.5272 36.1725 55.3411 35.7813C56.155 35.3901 56.8869 34.8269 57.4931 34.1252C62.1974 29.0804 70.1925 29.0823 74.8945 34.1292L92.0905 52.5865C96.3344 57.1418 103.551 57.1435 107.797 52.5901C110.912 49.2492 111.572 44.3025 109.442 40.2616L101.653 25.4885Z" fill="white"/>
<path d="M13.2585 50.8691L4.3035 45.6991C3.49275 45.2309 2.90115 44.4599 2.65886 43.5556C2.41656 42.6513 2.54341 41.6878 3.0115 40.8771L21.0305 9.67606C21.4986 8.86531 22.2696 8.27371 23.1739 8.03141C24.0782 7.78912 25.0417 7.91597 25.8525 8.38406L34.8075 13.5541C35.6183 14.0222 36.2099 14.7932 36.4521 15.6975C36.6944 16.6018 36.5676 17.5653 36.0995 18.3761L18.0855 49.5761C17.8538 49.9783 17.545 50.3308 17.1769 50.6135C16.8088 50.8962 16.3885 51.1036 15.9402 51.2237C15.4918 51.3438 15.0242 51.3743 14.564 51.3134C14.1039 51.2526 13.6602 51.1016 13.2585 50.8691Z" fill="white"/>
<path d="M116.738 45.5082L125.693 40.3382C126.503 39.8701 127.095 39.0991 127.337 38.1948C127.58 37.2905 127.453 36.327 126.985 35.5162L108.971 4.3162C108.503 3.50544 107.732 2.91385 106.827 2.67155C105.923 2.42926 104.959 2.55611 104.149 3.0242L95.1936 8.1942C94.3829 8.66232 93.7913 9.43333 93.549 10.3376C93.3067 11.2419 93.4336 12.2054 93.9016 13.0162L111.916 44.2162C112.384 45.027 113.155 45.6185 114.059 45.8608C114.963 46.1031 115.927 45.9763 116.738 45.5082Z" fill="white"/>
<path d="Mnan nanL67.9243 92.6561L64.3123 96.2681C63.0602 97.428 61.4075 98.0577 59.701 98.0251C57.9945 97.9925 56.367 97.3001 55.1601 96.0932C53.9533 94.8863 53.2609 93.2589 53.2283 91.5524C53.1957 89.8459 53.8254 88.1931 54.9853 86.9411L58.5973 83.3291C59.8494 82.1691 61.5022 81.5394 63.2086 81.572C64.9151 81.6046 66.5426 82.297 67.7495 83.5039C68.9564 84.7108 69.6488 86.3382 69.6814 88.0447C69.714 89.7512 69.0842 91.404 67.9243 92.6561Lnan nanZ" fill="white"/>
<path d="M58.5978 83.329C58.5975 83.3296 58.5971 83.3302 58.5966 83.3307L54.9854 86.942C54.3814 87.5918 53.6527 88.1132 52.8427 88.4751C52.0327 88.8369 51.1581 89.0317 50.271 89.0479C49.384 89.0641 48.5029 88.9012 47.6802 88.5692C46.8576 88.2371 46.1103 87.7426 45.4831 87.1152C44.8559 86.4877 44.3616 85.7403 44.0298 84.9176C43.698 84.0948 43.5355 83.2136 43.5519 82.3266C43.5684 81.4396 43.7635 80.565 44.1256 79.7551C44.4877 78.9453 45.0093 78.2167 45.6594 77.613L49.2714 74.001C49.8748 73.3496 50.6035 72.8266 51.4137 72.4635C52.224 72.1003 53.0993 71.9044 53.9871 71.8874C54.8748 71.8705 55.7569 72.0328 56.5805 72.3648C57.404 72.6967 58.1521 73.1914 58.78 73.8193C59.4079 74.4472 59.9026 75.1953 60.2345 76.0189C60.5665 76.8424 60.7289 77.7245 60.7119 78.6123C60.6949 79.5001 60.499 80.3753 60.1359 81.1856C59.7729 81.9955 59.2502 82.7239 58.5992 83.3271C58.5987 83.3277 58.5982 83.3283 58.5978 83.329Z" fill="white"/>
<path d="Mnan nanL49.27 74.0023L45.658 77.6143C45.0546 78.2657 44.3259 78.7886 43.5157 79.1517C42.7054 79.5149 41.8301 79.7108 40.9424 79.7278C40.0546 79.7448 39.1725 79.5824 38.349 79.2505C37.5254 78.9185 36.7773 78.4238 36.1494 77.7959C35.5215 77.168 35.0268 76.4199 34.6949 75.5964C34.3629 74.7728 34.2006 73.8907 34.2175 73.0029C34.2345 72.1152 34.4304 71.24 34.7936 70.4297C35.1567 69.6194 35.6797 68.8907 36.3311 68.2873L39.9431 64.6753C40.5465 64.0239 41.2752 63.501 42.0854 63.1378C42.8957 62.7746 43.7709 62.5787 44.6587 62.5618C45.5465 62.5448 46.4286 62.7072 47.2521 63.0391C48.0757 63.3711 48.8238 63.8658 49.4517 64.4936C50.0796 65.1215 50.5743 65.8696 50.9062 66.6932C51.2382 67.5168 51.4005 68.3988 51.3836 69.2866C51.3666 70.1744 51.1707 71.0496 50.8075 71.8599C50.4444 72.6702 49.9214 73.3988 49.27 74.0023Lnan nanZ" fill="white"/>
<path d="Mnan nanL39.2753 65.3441L37.0843 67.5351C35.8322 68.695 34.1794 69.3247 32.473 69.2921C30.7665 69.2595 29.139 68.5671 27.9321 67.3602C26.7252 66.1534 26.0328 64.5259 26.0002 62.8194C25.9676 61.1129 26.5974 59.4601 27.7573 58.2081L29.9483 56.0171C30.5517 55.3657 31.2804 54.8427 32.0907 54.4796C32.901 54.1164 33.7762 53.9205 34.664 53.9035C35.5518 53.8866 36.4338 54.0489 37.2574 54.3809C38.0809 54.7128 38.8291 55.2076 39.4569 55.8354C40.0848 56.4633 40.5795 57.2114 40.9115 58.035C41.2434 58.8585 41.4058 59.7406 41.3888 60.6284C41.3719 61.5162 41.1759 62.3914 40.8128 63.2017C40.4496 64.012 39.9267 64.7406 39.2753 65.3441Lnan nanZ" fill="white"/>
<path d="M129.181 34.2462L125.797 28.3801C125.461 27.7967 124.906 27.3708 124.255 27.1963C123.605 27.0218 122.911 27.113 122.328 27.4496C121.744 27.7863 121.319 28.341 121.144 28.9917C120.97 29.6423 121.061 30.3357 121.397 30.9191L124.783 36.7841C124.849 36.8968 124.891 37.0213 124.908 37.1504C124.925 37.2795 124.917 37.4107 124.883 37.5365C124.849 37.6622 124.791 37.7801 124.712 37.8834C124.632 37.9866 124.533 38.0732 124.42 38.1381L115.465 43.3081C115.238 43.4391 114.967 43.4744 114.713 43.4064C114.46 43.3383 114.243 43.1725 114.111 42.9451L96.0975 11.7451C95.9665 11.5173 95.9312 11.2469 95.9992 10.9932C96.0673 10.7394 96.2331 10.5229 96.4604 10.3911L105.414 5.22115C105.642 5.09021 105.913 5.05489 106.166 5.12293C106.42 5.19097 106.637 5.35682 106.768 5.58415L109.968 11.1301C110.135 11.4191 110.357 11.6723 110.622 11.8754C110.886 12.0785 111.188 12.2275 111.51 12.314C111.833 12.4004 112.169 12.4225 112.499 12.379C112.83 12.3355 113.149 12.2274 113.438 12.0607C113.727 11.8939 113.98 11.672 114.183 11.4074C114.386 11.1428 114.535 10.8408 114.622 10.5186C114.708 10.1964 114.73 9.8604 114.687 9.52968C114.643 9.19897 114.535 8.88005 114.368 8.59115L111.168 3.04515C110.362 1.65279 109.037 0.637033 107.483 0.220669C105.929 -0.195695 104.273 0.0213313 102.878 0.824147L93.9245 5.99415C92.6153 6.74859 91.636 7.96581 91.1795 9.40615H65.7975C64.0445 9.40136 62.308 9.7443 60.6885 10.4151C59.069 11.0859 57.5986 12.0713 56.3625 13.3141L53.7625 15.9142C51.4806 15.3687 49.1426 15.0925 46.7965 15.0911H38.9095C38.7091 14.3109 38.3549 13.5786 37.8677 12.937C37.3806 12.2955 36.7702 11.7577 36.0725 11.3551L27.1175 6.18515C26.4272 5.78654 25.6653 5.5278 24.875 5.42369C24.0848 5.31958 23.2818 5.37215 22.5119 5.57839C21.742 5.78463 21.0203 6.14051 20.3879 6.6257C19.7556 7.11089 19.225 7.71589 18.8265 8.40615L0.81345 39.6071C0.414845 40.2974 0.156101 41.0593 0.0519934 41.8496C-0.0521141 42.6398 0.000454158 43.4428 0.206696 44.2127C0.412938 44.9826 0.768815 45.7043 1.254 46.3367C1.73919 46.969 2.34419 47.4996 3.03445 47.8981L11.9895 53.0681C12.9084 53.6003 13.9515 53.8804 15.0135 53.8801C15.3874 53.881 15.7606 53.8475 16.1285 53.7801L23.4574 61.1091C23.3442 61.6913 23.2873 62.2831 23.2875 62.8761C23.2865 65.2104 24.1803 67.4562 25.7848 69.1516C27.3894 70.8469 29.5827 71.8628 31.9135 71.9902C31.8797 72.3104 31.8627 72.6321 31.8624 72.9541C31.8635 75.3761 32.8264 77.6985 34.5395 79.4106C36.2526 81.1227 38.5755 82.0844 40.9975 82.0842C41.0635 82.0842 41.1295 82.0842 41.1975 82.0842C41.1975 82.1502 41.1975 82.2161 41.1975 82.2841C41.1975 84.7066 42.1598 87.0299 43.8727 88.7429C45.5857 90.4558 47.909 91.4182 50.3315 91.4182C50.3975 91.4182 50.4635 91.4182 50.5315 91.4182C50.5315 91.4842 50.5315 91.5491 50.5315 91.6181C50.537 93.4204 51.0757 95.1807 52.0795 96.6775C53.0834 98.1742 54.5076 99.3406 56.1728 100.03C57.8381 100.719 59.6701 100.9 61.438 100.55C63.206 100.2 64.831 99.3354 66.1085 98.0641L69.7205 94.4521C70.7443 93.4296 71.5089 92.1772 71.9505 90.7991C73.1237 91.6629 74.4863 92.2337 75.9249 92.464C77.3634 92.6943 78.8362 92.5775 80.2204 92.1232C81.6046 91.6689 82.8602 90.8903 83.8825 89.8523C84.9048 88.8144 85.6642 87.5471 86.0975 86.1562C87.3444 86.9673 88.7706 87.4618 90.2521 87.5966C91.7336 87.7314 93.2256 87.5025 94.5985 86.9298C95.9714 86.357 97.1837 85.4578 98.1302 84.3101C99.0767 83.1624 99.7286 81.801 100.029 80.3441C101.981 80.9916 104.095 80.9616 106.028 80.2588C107.96 79.5561 109.6 78.2217 110.68 76.4716C111.76 74.7216 112.218 72.6583 111.98 70.6155C111.742 68.5727 110.822 66.67 109.368 65.2151L103.442 59.2892L114.259 48.4721C114.5 48.5015 114.742 48.5165 114.984 48.5171C116.046 48.5174 117.09 48.2373 118.008 47.7052L126.963 42.5351C128.357 41.7304 129.375 40.405 129.791 38.8503C130.208 37.2957 129.99 35.6391 129.185 34.2451L129.181 34.2462ZM5.57345 43.5001C5.46077 43.435 5.36202 43.3483 5.28285 43.245C5.20368 43.1417 5.14562 43.0239 5.11201 42.8981C5.07839 42.7724 5.06987 42.6413 5.08694 42.5122C5.104 42.3832 5.14631 42.2588 5.21145 42.1461L23.2255 10.9461C23.2901 10.8334 23.3764 10.7345 23.4793 10.6552C23.5823 10.576 23.6999 10.5178 23.8254 10.4842C23.91 10.4618 23.997 10.4503 24.0844 10.4501C24.2577 10.45 24.4278 10.4959 24.5774 10.5831L33.5325 15.7531C33.76 15.8847 33.926 16.1012 33.9941 16.3551C34.0621 16.6089 34.0267 16.8794 33.8955 17.1071L15.8815 48.3071C15.7499 48.5347 15.5334 48.7007 15.2795 48.7688C15.0257 48.8368 14.7552 48.8014 14.5275 48.6701L5.57345 43.5001ZM28.3645 62.8712C28.363 62.3383 28.4672 61.8104 28.6711 61.3181C28.8751 60.8258 29.1746 60.3789 29.5525 60.0031L31.7435 57.8121C32.1195 57.4329 32.5668 57.1317 33.0595 56.9258C33.5523 56.7198 34.0809 56.6133 34.615 56.6122C35.149 56.611 35.6781 56.7154 36.1717 56.9193C36.6653 57.1231 37.1138 57.4225 37.4915 57.8001C37.8691 58.1778 38.1685 58.6263 38.3723 59.1199C38.5762 59.6135 38.6806 60.1426 38.6794 60.6766C38.6783 61.2107 38.5717 61.7393 38.3658 62.2321C38.1599 62.7248 37.8587 63.1721 37.4795 63.5481L35.2885 65.7392C34.7213 66.3067 33.9985 66.6933 33.2115 66.85C32.4246 67.0067 31.6088 66.9265 30.8675 66.6194C30.1261 66.3124 29.4925 65.7924 29.0468 65.1252C28.6011 64.458 28.3633 63.6735 28.3634 62.8712H28.3645ZM40.9975 77.0061C40.1953 77.0061 39.4111 76.7682 38.7441 76.3226C38.0771 75.8769 37.5572 75.2434 37.2502 74.5023C36.9433 73.7612 36.8629 72.9457 37.0194 72.1589C37.1759 71.3721 37.5622 70.6494 38.1295 70.0822L41.7415 66.4702C42.1175 66.0909 42.5648 65.7897 43.0575 65.5838C43.5503 65.3779 44.0789 65.2713 44.613 65.2702C45.147 65.269 45.6761 65.3734 46.1697 65.5773C46.6633 65.7811 47.1118 66.0805 47.4895 66.4581C47.8671 66.8358 48.1665 67.2843 48.3703 67.7779C48.5742 68.2715 48.6786 68.8006 48.6774 69.3346C48.6763 69.8687 48.5697 70.3973 48.3638 70.8901C48.1579 71.3828 47.8567 71.8301 47.4775 72.2061L43.8655 75.8181C43.4897 76.1959 43.0427 76.4955 42.5504 76.6994C42.0581 76.9033 41.5303 77.0076 40.9975 77.0061ZM50.3245 86.3331C49.5223 86.3331 48.7381 86.0953 48.0711 85.6496C47.4041 85.2039 46.8842 84.5704 46.5772 83.8293C46.2703 83.0882 46.1899 82.2727 46.3464 81.4859C46.5029 80.6991 46.8892 79.9764 47.4565 79.4091L51.0685 75.7971C51.4445 75.4179 51.8918 75.1167 52.3845 74.9108C52.8773 74.7049 53.4059 74.5983 53.94 74.5972C54.474 74.596 55.0031 74.7004 55.4967 74.9043C55.9903 75.1081 56.4388 75.4075 56.8165 75.7851C57.1941 76.1628 57.4935 76.6113 57.6973 77.1049C57.9012 77.5985 58.0056 78.1276 58.0044 78.6616C58.0033 79.1957 57.8967 79.7243 57.6908 80.2171C57.4849 80.7098 57.1837 81.1571 56.8045 81.5332L53.1925 85.1452C52.8164 85.5232 52.3692 85.8228 51.8765 86.0268C51.3839 86.2307 50.8556 86.3348 50.3225 86.3331H50.3245ZM66.1295 90.8642L62.5175 94.4762C62.1414 94.8554 61.6941 95.1566 61.2014 95.3625C60.7086 95.5684 60.18 95.675 59.6459 95.6761C59.1119 95.6773 58.5828 95.5729 58.0892 95.369C57.5956 95.1652 57.1471 94.8658 56.7694 94.4882C56.3918 94.1105 56.0924 93.662 55.8886 93.1684C55.6847 92.6748 55.5803 92.1457 55.5815 91.6117C55.5826 91.0776 55.6892 90.549 55.8951 90.0562C56.101 89.5635 56.4022 89.1162 56.7815 88.7402L60.3935 85.1282C60.7695 84.7489 61.2168 84.4477 61.7095 84.2418C62.2023 84.0359 62.7309 83.9293 63.265 83.9282C63.799 83.927 64.3281 84.0314 64.8217 84.2353C65.3153 84.4391 65.7638 84.7385 66.1415 85.1161C66.5191 85.4938 66.8185 85.9423 67.0223 86.4359C67.2262 86.9295 67.3306 87.4586 67.3294 87.9926C67.3283 88.5267 67.2217 89.0553 67.0158 89.5481C66.8099 90.0408 66.5087 90.4881 66.1295 90.8642ZM105.774 74.5462C105.014 75.3068 103.982 75.7341 102.906 75.7341C101.831 75.7341 100.799 75.3068 100.038 74.5462L75.8045 50.3081C75.3283 49.832 74.6824 49.5644 74.0089 49.5644C73.3355 49.5644 72.6897 49.832 72.2135 50.3081C71.7373 50.7843 71.4697 51.4302 71.4697 52.1036C71.4697 52.7771 71.7373 53.423 72.2135 53.8992L93.9474 75.6322C94.3405 76.005 94.6549 76.4528 94.872 76.9492C95.0892 77.4455 95.2047 77.9803 95.2117 78.522C95.2188 79.0638 95.1173 79.6014 94.9131 80.1032C94.709 80.6051 94.4063 81.0609 94.0231 81.4439C93.6399 81.8268 93.1838 82.1291 92.6819 82.3329C92.1799 82.5367 91.6422 82.6379 91.1005 82.6305C90.5587 82.623 90.024 82.5071 89.5278 82.2897C89.0316 82.0722 88.584 81.7575 88.2114 81.3642L62.0975 55.2521C61.6213 54.776 60.9754 54.5084 60.302 54.5084C59.6285 54.5084 58.9826 54.776 58.5065 55.2521C58.0303 55.7283 57.7627 56.3742 57.7627 57.0476C57.7627 57.7211 58.0303 58.3669 58.5065 58.8431L80.2374 80.5771C80.9928 81.3389 81.4157 82.3689 81.4134 83.4416C81.4112 84.5144 80.984 85.5426 80.2255 86.3012C79.4669 87.0597 78.4387 87.4869 77.3659 87.4891C76.2932 87.4914 75.2632 87.0685 74.5014 86.3132L69.7215 81.5332L69.7005 81.5141C68.8301 80.6481 67.7935 79.9671 66.6531 79.5122C65.5126 79.0573 64.2919 78.8379 63.0645 78.8672C63.0645 78.8002 63.0645 78.7331 63.0645 78.6671C63.065 77.4511 62.8225 76.2473 62.3512 75.1264C61.8798 74.0054 61.1891 72.99 60.3196 72.1399C59.4502 71.2897 58.4196 70.622 57.2884 70.1759C56.1571 69.7298 54.9481 69.5143 53.7325 69.5422C53.7325 69.4752 53.7325 69.4081 53.7325 69.3421C53.7328 68.0692 53.4669 66.8103 52.9518 65.6462C52.4367 64.4821 51.6838 63.4387 50.7415 62.5828C49.7992 61.727 48.6884 61.0777 47.4802 60.6767C46.2721 60.2756 44.9935 60.1317 43.7265 60.2541C43.6433 58.4861 43.0481 56.7803 42.0135 55.3442C40.9788 53.9081 39.5492 52.8035 37.8984 52.1648C36.2476 51.5261 34.4468 51.3809 32.715 51.7466C30.9832 52.1124 29.395 52.9735 28.1434 54.2251L25.9524 56.4161L25.9445 56.4241L20.3064 50.7861L37.9905 20.1642H46.7905C47.6512 20.1646 48.5114 20.2097 49.3675 20.2991L46.4675 23.1991C44.7535 24.9119 43.7901 27.2354 43.7893 29.6585C43.7884 32.0815 44.7502 34.4057 46.463 36.1196C48.1757 37.8336 50.4992 38.797 52.9223 38.7978C55.3453 38.7987 57.6695 37.8369 59.3835 36.1241L66.2374 29.2701L105.774 68.8072C106.534 69.5684 106.96 70.5999 106.96 71.6752C106.96 72.7505 106.534 73.7819 105.774 74.5432V74.5462ZM81.3815 37.2311C83.2277 35.8948 84.7307 34.1394 85.7667 32.1093C86.8028 30.0793 87.3425 27.8323 87.3415 25.5532C87.3415 24.8798 87.074 24.234 86.5978 23.7578C86.1216 23.2816 85.4758 23.0141 84.8025 23.0141C84.1291 23.0141 83.4833 23.2816 83.0071 23.7578C82.531 24.234 82.2635 24.8798 82.2635 25.5532C82.2634 27.1679 81.8443 28.7549 81.0471 30.1591C80.2499 31.5633 79.1019 32.7365 77.7155 33.5641L68.0444 23.8931C67.8106 23.6557 67.5323 23.4667 67.2254 23.3369C66.9185 23.207 66.5891 23.139 66.2558 23.1366C65.9226 23.1341 65.5922 23.1974 65.2834 23.3228C64.9747 23.4481 64.6937 23.6331 64.4565 23.8671L55.7975 32.5331C55.4214 32.9124 54.9741 33.2136 54.4814 33.4195C53.9886 33.6254 53.46 33.732 52.9259 33.7331C52.3919 33.7343 51.8628 33.6299 51.3692 33.426C50.8756 33.2222 50.4271 32.9228 50.0494 32.5452C49.6718 32.1675 49.3724 31.719 49.1686 31.2254C48.9647 30.7318 48.8603 30.2027 48.8615 29.6687C48.8626 29.1346 48.9692 28.606 49.1751 28.1132C49.381 27.6205 49.6822 27.1732 50.0615 26.7971L59.9545 16.9041C60.72 16.1344 61.6306 15.5241 62.6335 15.1085C63.6364 14.6929 64.7118 14.4804 65.7975 14.4832H91.8175L109.717 45.4832C109.759 45.5562 109.806 45.6261 109.851 45.6971L99.8514 55.6971L81.3815 37.2311Z" fill="#D4AF37"/>
<path d="M117.884 22.2953C118.472 22.2944 119.041 22.0899 119.494 21.7166C119.948 21.3433 120.258 20.8243 120.372 20.248C120.486 19.6717 120.397 19.0737 120.119 18.5559C119.842 18.038 119.394 17.6324 118.851 17.408C118.308 17.1835 117.704 17.1543 117.142 17.3251C116.58 17.496 116.094 17.8564 115.768 18.3449C115.442 18.8335 115.295 19.4201 115.353 20.0047C115.41 20.5893 115.669 21.1359 116.084 21.5513C116.563 22.0266 117.21 22.294 117.884 22.2953Z" fill="#D4AF37"/>
</g>
<defs>
<clipPath id="clip0_827_42952">
<rect width="130" height="100.727" fill="white" transform="translate(0 0.0136719)"/>
</clipPath>
</defs>
</svg>
