<svg width="58" height="44" viewBox="0 0 58 44" fill="none" xmlns="http://www.w3.org/2000/svg">
<path d="M50.0969 41.48H50.0664C49.4407 41.48 48.9336 41.9871 48.9336 42.6128C48.9336 43.2385 49.4407 43.7456 50.0664 43.7456H50.0969C50.7226 43.7456 51.2298 43.2385 51.2298 42.6128C51.2298 41.9871 50.7226 41.48 50.0969 41.48Z" fill="white"/>
<path d="M53.8068 31.0311C54.5763 30.1266 55.0427 28.9536 55.0427 27.6721C55.0427 24.8192 52.736 22.4983 49.9004 22.4983C49.884 22.4983 49.8676 22.4996 49.8513 22.4996C49.0972 21.4133 48.0472 20.5915 46.8467 20.1234C47.6122 19.2198 48.0759 18.0498 48.0759 16.7723C48.0759 13.9194 45.7692 11.5985 42.9332 11.5985C42.9172 11.5985 42.9013 11.5998 42.8849 11.5998C42.1304 10.5135 41.0804 9.69176 39.8799 9.22359C40.6454 8.31999 41.1091 7.15001 41.1091 5.8725C41.1091 3.01967 38.8024 0.69873 35.9668 0.69873C33.1312 0.69873 30.8244 3.01967 30.8244 5.8725C30.8244 7.15001 31.2878 8.31999 32.0533 9.22359C30.8528 9.69176 29.8031 10.5135 29.0487 11.5998C29.0323 11.5998 29.0164 11.599 29 11.599C28.9836 11.599 28.9677 11.5998 28.9513 11.5998C28.1969 10.5135 27.1468 9.69176 25.9463 9.22359C26.7118 8.31999 27.1756 7.15001 27.1756 5.8725C27.1756 3.01967 24.8688 0.69873 22.0332 0.69873C19.1976 0.69873 16.8909 3.01967 16.8909 5.8725C16.8909 7.15001 17.3542 8.31999 18.1197 9.22359C16.9192 9.69176 15.8691 10.5135 15.1151 11.5998C15.0987 11.5998 15.0828 11.599 15.0664 11.599C14.7912 11.599 14.5133 11.6215 14.2416 11.6658C13.6238 11.7671 13.2052 12.3494 13.3066 12.9667C13.4075 13.584 13.9889 14.0026 14.6071 13.9017C14.7589 13.877 14.9133 13.8646 15.0664 13.8646C16.6528 13.8646 17.9431 15.1691 17.9431 16.7727C17.9431 18.3759 16.6528 19.6809 15.0664 19.6809C13.9022 19.6809 12.8596 18.9786 12.4114 17.8927C12.1729 17.3143 11.51 17.0391 10.9321 17.2776C10.3537 17.5166 10.0785 18.179 10.317 18.7569C10.5263 19.2636 10.8086 19.7229 11.148 20.1256C9.94972 20.5942 8.90143 21.415 8.14828 22.4996C8.13191 22.4996 8.11598 22.4987 8.09917 22.4987C5.26404 22.4987 2.95682 24.8197 2.95682 27.6725C2.95682 28.9536 3.42322 30.1266 4.19273 31.0316C1.7417 31.99 0 34.376 0 37.1629V40.3472C0 42.2212 1.52443 43.7456 3.39844 43.7456H45.5391C46.1648 43.7456 46.6719 43.2385 46.6719 42.6128C46.6719 41.9871 46.1648 41.48 45.5391 41.48H44.0664V37.1629C44.0664 34.7827 46.0033 32.8458 48.3835 32.8458H51.4173C53.7975 32.8458 55.7344 34.7827 55.7344 37.1629V40.3472C55.7344 40.972 55.2259 41.48 54.6016 41.48H53.3515C52.7258 41.48 52.2187 41.9871 52.2187 42.6128C52.2187 43.2385 52.7258 43.7456 53.3515 43.7456H54.6016C56.4756 43.7456 58 42.2212 58 40.3472V37.1629C58 34.376 56.2583 31.99 53.8068 31.0311ZM52.7771 27.6721C52.7771 29.2757 51.4868 30.5802 49.9004 30.5802C48.314 30.5802 47.0237 29.2757 47.0237 27.6721C47.0237 26.0684 48.314 24.7639 49.9004 24.7639C51.4868 24.7639 52.7771 26.0684 52.7771 27.6721ZM45.8103 16.7727C45.8103 18.3759 44.52 19.6804 42.9336 19.6804C41.3472 19.6804 40.0569 18.3759 40.0569 16.7727C40.0569 15.1691 41.3472 13.8646 42.9336 13.8646C44.52 13.8646 45.8103 15.1691 45.8103 16.7727ZM35.9668 2.96436C37.5532 2.96436 38.8435 4.26886 38.8435 5.8725C38.8435 7.47569 37.5532 8.78064 35.9668 8.78064C34.3804 8.78064 33.0901 7.47569 33.0901 5.8725C33.0901 4.26886 34.3804 2.96436 35.9668 2.96436ZM34.4079 11.0463H37.5257C38.6342 11.0463 39.679 11.4843 40.4626 12.2366C38.8718 13.1172 37.7912 14.8199 37.7912 16.7727C37.7912 18.0502 38.2545 19.2202 39.0201 20.1238C37.8196 20.592 36.7699 21.4133 36.0155 22.4996C35.9991 22.4996 35.9832 22.4983 35.9668 22.4983C35.9504 22.4983 35.9341 22.4996 35.9177 22.4996C35.1637 21.4133 34.1136 20.592 32.9131 20.1238C33.6786 19.2202 34.1423 18.0502 34.1423 16.7727C34.1423 14.8199 33.0613 13.1172 31.4705 12.2366C32.2546 11.4843 33.2989 11.0463 34.4079 11.0463ZM35.9668 30.5802C34.3804 30.5802 33.0901 29.2757 33.0901 27.6721C33.0901 26.0684 34.3804 24.7639 35.9668 24.7639C37.5532 24.7639 38.8435 26.0684 38.8435 27.6721C38.8435 29.2757 37.5532 30.5802 35.9668 30.5802ZM29 33.4751C28.2561 32.3794 27.1902 31.5201 25.9396 31.0311C26.7092 30.1266 27.1756 28.9536 27.1756 27.6721C27.1756 25.7202 26.095 24.017 24.5042 23.1364C25.2878 22.3841 26.3326 21.9465 27.4411 21.9465H30.5589C31.6674 21.9465 32.7122 22.3841 33.4958 23.1364C31.905 24.017 30.8244 25.7197 30.8244 27.6721C30.8244 28.9536 31.2908 30.1266 32.0604 31.0311C30.8098 31.5201 29.7439 32.3794 29 33.4751ZM19.1565 27.6721C19.1565 26.0684 20.4468 24.7639 22.0332 24.7639C23.6196 24.7639 24.9099 26.0684 24.9099 27.6721C24.9099 29.2757 23.6196 30.5802 22.0332 30.5802C20.4468 30.5802 19.1565 29.2757 19.1565 27.6721ZM29 13.8646C30.5864 13.8646 31.8767 15.1691 31.8767 16.7727C31.8767 18.3759 30.5864 19.6804 29 19.6804C27.4136 19.6804 26.1233 18.3759 26.1233 16.7723C26.1233 15.1691 27.4136 13.8646 29 13.8646ZM22.0332 2.96436C23.6196 2.96436 24.9099 4.26886 24.9099 5.8725C24.9099 7.47569 23.6196 8.78064 22.0332 8.78064C20.4468 8.78064 19.1565 7.47569 19.1565 5.8725C19.1565 4.26886 20.4468 2.96436 22.0332 2.96436ZM17.5369 12.2366C18.321 11.4843 19.3653 11.0463 20.4743 11.0463H23.5921C24.7011 11.0463 25.7454 11.4843 26.5295 12.2366C24.9382 13.1172 23.8577 14.8199 23.8577 16.7727C23.8577 18.0502 24.321 19.2202 25.0865 20.1238C23.8864 20.592 22.8363 21.4133 22.0819 22.4996C22.0655 22.4996 22.0496 22.4983 22.0332 22.4983C22.0168 22.4983 22.0005 22.4996 21.9841 22.4996C21.2301 21.4133 20.18 20.592 18.9795 20.1238C19.745 19.2202 20.2088 18.0502 20.2088 16.7727C20.2088 14.8199 19.1282 13.1172 17.5369 12.2366ZM13.5075 21.946H16.6254C17.7338 21.946 18.7786 22.3841 19.5623 23.1364C17.9715 24.017 16.8904 25.7197 16.8904 27.6721C16.8904 28.9536 17.3568 30.1266 18.1263 31.0311C16.8763 31.5201 15.8103 32.3794 15.066 33.4751C14.3221 32.379 13.2561 31.5201 12.006 31.0311C12.7756 30.1266 13.242 28.9536 13.242 27.6721C13.242 25.7197 12.1609 24.017 10.5701 23.1364C11.3542 22.3841 12.399 21.946 13.5075 21.946ZM8.09961 24.7639C9.68599 24.7639 10.9763 26.0684 10.9763 27.6721C10.9763 29.2757 9.68599 30.5802 8.09961 30.5802C6.51323 30.5802 5.22289 29.2757 5.22289 27.6721C5.22289 26.0684 6.51323 24.7639 8.09961 24.7639ZM2.26562 40.3472V37.1629C2.26562 34.7827 4.20247 32.8458 6.5827 32.8458H9.61652C11.9967 32.8458 13.9336 34.7827 13.9336 37.1629V41.48H3.39844C2.77362 41.48 2.26562 40.972 2.26562 40.3472ZM16.1992 37.1629C16.1992 34.7827 18.1361 32.8458 20.5163 32.8458H23.5501C25.9303 32.8458 27.8672 34.7827 27.8672 37.1629V41.48H16.1992V37.1629ZM30.1328 37.1629C30.1328 34.7827 32.0697 32.8458 34.4499 32.8458H37.4837C39.8639 32.8458 41.8008 34.7827 41.8008 37.1629V41.48H30.1328V37.1629ZM42.9336 33.4751C42.1897 32.3794 41.1237 31.5201 39.8732 31.0311C40.6427 30.1266 41.1091 28.9536 41.1091 27.6721C41.1091 25.7202 40.0285 24.017 38.4377 23.1364C39.2214 22.3841 40.2662 21.9465 41.3746 21.9465H44.4925C45.601 21.9465 46.6458 22.3841 47.4294 23.1364C45.8386 24.017 44.758 25.7197 44.758 27.6721C44.758 28.9536 45.2244 30.1266 45.994 31.0311C44.7434 31.5201 43.6774 32.3794 42.9336 33.4751Z" fill="white"/>
<path d="M10.9282 16.3268C11.0632 16.3804 11.203 16.4052 11.3402 16.4052C11.7924 16.4052 12.2212 16.1317 12.3982 15.687L12.4053 15.6693C12.6323 15.0878 12.3442 14.4378 11.7637 14.2086C11.1831 13.9794 10.5247 14.2683 10.2937 14.8484L10.2866 14.8661C10.0596 15.4476 10.3477 16.0976 10.9282 16.3268Z" fill="white"/>
</svg>
