<svg width="61" height="65" viewBox="0 0 61 65" fill="none" xmlns="http://www.w3.org/2000/svg">
<path d="M39.3096 20.9815C33.0855 11.8246 24.7725 6.95781 20.4191 9.93979C19.9397 10.2774 19.5232 10.6963 19.1883 11.1776C19.1883 11.2128 9.11007 31.6084 9.11007 31.6084L3.4837 35.4202C2.61997 36.0066 1.88022 36.7573 1.30671 37.6296C0.733199 38.5019 0.337165 39.4786 0.141232 40.504C-0.0547017 41.5294 -0.0466952 42.5833 0.164794 43.6056C0.376283 44.6279 0.78711 45.5985 1.37381 46.462L1.62699 46.8347C2.8129 48.5622 4.63205 49.7526 6.68988 50.1476C8.74772 50.5425 10.8783 50.1103 12.6195 48.9446L21.6569 62.258C22.9861 63.8967 25.5391 65.5284 28.6899 63.6084C29.248 63.2464 29.7242 62.7715 30.0876 62.2143C30.451 61.6571 30.6936 61.0299 30.7998 60.3732C30.927 59.72 30.9236 59.048 30.7896 58.3961C30.6556 57.7443 30.3937 57.1254 30.0191 56.5754L22.0578 44.8303C22.0578 44.8303 40.878 43.3323 40.9483 43.3042C41.5359 43.1812 42.0931 42.9421 42.587 42.6009C44.8235 41.0818 45.6253 37.8958 44.8516 33.6268C44.1554 29.6954 42.1791 25.2435 39.3096 20.9815ZM3.67359 45.4492L3.4204 45.0765C3.01561 44.4806 2.73233 43.8106 2.58676 43.1051C2.4412 42.3995 2.43621 41.6722 2.57209 40.9647C2.70796 40.2573 2.98204 39.5835 3.37862 38.9821C3.7752 38.3807 4.2865 37.8634 4.88326 37.4598L9.74304 34.1543L16.1571 43.5996L11.2973 46.9051C10.7013 47.3104 10.0312 47.5942 9.32533 47.7404C8.6195 47.8866 7.89177 47.8923 7.18375 47.7571C6.47573 47.6219 5.8013 47.3485 5.199 46.9525C4.59671 46.5565 4.07836 46.0457 3.67359 45.4492ZM27.9936 57.9609C28.378 58.5328 28.5198 59.2339 28.388 59.9103C28.2561 60.5866 27.8614 61.1831 27.2903 61.5688C26.7173 61.9535 26.0151 62.0956 25.3376 61.9637C24.6601 61.8319 24.0624 61.437 23.6754 60.8655L14.6661 47.5943L18.2881 45.1328L19.2446 45.0554L27.9936 57.9609ZM18.485 42.6431L11.4943 32.3468L18.1615 18.7521C18.8085 22.571 20.7004 27.1073 23.7246 31.5591C26.7488 36.011 30.2652 39.4431 33.5707 41.4545L18.485 42.6431ZM39.2323 41.0044C35.8705 40.7864 30.3989 36.9956 25.7641 30.1666C21.1294 23.3376 19.6244 16.8743 20.6582 13.6602C20.8449 13.0569 21.2175 12.5281 21.7227 12.1491C22.2279 11.7702 22.84 11.5607 23.4714 11.5503C26.805 11.5503 32.4806 15.3622 37.249 22.3881C39.9356 26.3407 41.8907 30.4761 42.4253 34.091C43.4732 41.0044 39.2323 41.0044 39.2323 41.0044Z" fill="white"/>
<path d="M30.5186 21.2419C29.6571 21.0728 28.7705 21.0771 27.9107 21.2546C27.0509 21.4321 26.2351 21.7793 25.5111 22.2758C25.3776 22.3681 25.2637 22.4859 25.1757 22.6223C25.0878 22.7587 25.0276 22.9111 24.9985 23.0707C24.9694 23.2304 24.9721 23.3942 25.0064 23.5529C25.0406 23.7115 25.1058 23.8619 25.1981 23.9953C25.2905 24.1288 25.4082 24.2428 25.5446 24.3307C25.681 24.4187 25.8334 24.4789 25.9931 24.508C26.1528 24.537 26.3166 24.5343 26.4753 24.5001C26.6339 24.4658 26.7842 24.4007 26.9177 24.3083C27.3763 23.9971 27.8916 23.7792 28.4344 23.6671C28.9772 23.555 29.5367 23.551 30.081 23.6551C30.6253 23.7593 31.1438 23.9696 31.6069 24.2742C32.0699 24.5787 32.4684 24.9715 32.7797 25.4301C33.0909 25.8886 33.3088 26.404 33.4209 26.9467C33.5329 27.4895 33.537 28.049 33.4328 28.5934C33.3287 29.1377 33.1183 29.6562 32.8138 30.1192C32.5092 30.5823 32.1165 30.9808 31.6579 31.292C31.4417 31.4413 31.2789 31.6559 31.1935 31.9044C31.108 32.1529 31.1043 32.4222 31.1829 32.6729C31.2615 32.9237 31.4183 33.1427 31.6303 33.2979C31.8423 33.4531 32.0984 33.5364 32.3612 33.5355C32.6119 33.5402 32.8578 33.4665 33.0645 33.3246C34.1584 32.5835 35.0077 31.5345 35.505 30.3104C36.0022 29.0862 36.1248 27.7421 35.8575 26.4482C35.5901 25.1542 34.9447 23.9688 34.003 23.042C33.0614 22.1152 31.8658 21.4887 30.5678 21.2419H30.5186Z" fill="white"/>
<path d="M40.8282 12.4225H40.9478C41.2522 12.4224 41.5458 12.3094 41.7718 12.1055C41.9978 11.9016 42.1402 11.6211 42.1715 11.3183L43.121 2.09107C43.1426 1.92791 43.1313 1.76207 43.0877 1.60337C43.044 1.44466 42.969 1.29632 42.8671 1.16711C42.7651 1.0379 42.6383 0.930457 42.4941 0.851128C42.3499 0.771799 42.1912 0.7222 42.0275 0.705264C41.8638 0.688328 41.6984 0.7044 41.541 0.752529C41.3836 0.800658 41.2374 0.879867 41.1112 0.985468C40.9849 1.09107 40.8812 1.22092 40.806 1.36733C40.7308 1.51375 40.6858 1.67375 40.6735 1.83788L39.7311 11.0722C39.6977 11.3967 39.7944 11.7212 40.0002 11.9744C40.2059 12.2276 40.5037 12.3888 40.8282 12.4225Z" fill="white"/>
<path d="M56.7371 10.5233C56.5564 10.2509 56.2753 10.061 55.9551 9.99513C55.6349 9.92925 55.3017 9.9927 55.0281 10.1716L46.4549 15.798C46.2323 15.945 46.0635 16.1603 45.9739 16.4116C45.8843 16.6629 45.8787 16.9364 45.958 17.1911C46.0374 17.4458 46.1973 17.6679 46.4138 17.8238C46.6303 17.9797 46.8915 18.061 47.1582 18.0556C47.407 18.0613 47.6519 17.9928 47.8615 17.8587L56.4347 12.2323C56.7007 12.0452 56.8818 11.7604 56.9384 11.4402C56.9951 11.1199 56.9227 10.7903 56.7371 10.5233Z" fill="white"/>
<path d="M59.3609 25.5462L49.3882 23.7528C49.0664 23.695 48.7348 23.7674 48.4664 23.954C48.198 24.1406 48.0148 24.4262 47.9569 24.748C47.8991 25.0698 47.9715 25.4013 48.1581 25.6697C48.3447 25.9381 48.6303 26.1214 48.9521 26.1792L58.9178 27.9726H59.1358C59.4494 27.9818 59.7547 27.8709 59.9892 27.6625C60.2238 27.4541 60.3699 27.1641 60.3977 26.8516C60.4256 26.5391 60.333 26.2278 60.139 25.9812C59.945 25.7347 59.6641 25.5716 59.3539 25.5251L59.3609 25.5462Z" fill="white"/>
</svg>
