<svg width="22" height="23" viewBox="0 0 22 23" fill="none" xmlns="http://www.w3.org/2000/svg">
<path d="M22 4.19141C21.175 4.60391 20.35 4.74141 19.3875 4.87891C20.35 4.32891 21.0375 3.50391 21.3125 2.40391C20.4875 2.95391 19.525 3.22891 18.425 3.50391C17.6 2.67891 16.3625 2.12891 15.125 2.12891C12.7875 2.12891 10.725 4.19141 10.725 6.66641C10.725 7.07891 10.725 7.35391 10.8625 7.62891C7.15 7.49141 3.7125 5.70391 1.5125 2.95391C1.1 3.64141 0.9625 4.32891 0.9625 5.29141C0.9625 6.80391 1.7875 8.17891 3.025 9.00391C2.3375 9.00391 1.65 8.72891 0.9625 8.45391C0.9625 10.6539 2.475 12.4414 4.5375 12.8539C4.125 12.9914 3.7125 12.9914 3.3 12.9914C3.025 12.9914 2.75 12.9914 2.475 12.8539C3.025 14.6414 4.675 16.0164 6.7375 16.0164C5.225 17.2539 3.3 17.9414 1.1 17.9414C0.6875 17.9414 0.4125 17.9414 0 17.9414C2.0625 19.1789 4.4 20.0039 6.875 20.0039C15.125 20.0039 19.6625 13.1289 19.6625 7.21641C19.6625 7.07891 19.6625 6.80391 19.6625 6.66641C20.625 5.97891 21.45 5.15391 22 4.19141Z" fill="white"/>
</svg>
